<svg width="16" height="28" viewBox="0 0 16 28" fill="none" xmlns="http://www.w3.org/2000/svg">
<path fill-rule="evenodd" clip-rule="evenodd" d="M8.70001 12.35C5.29501 11.465 4.20001 10.55 4.20001 9.125C4.20001 7.49 5.71501 6.35 8.25001 6.35C10.92 6.35 11.91 7.625 12 9.5H15.315C15.21 6.92 13.635 4.55 10.5 3.785V0.5H6.00001V3.74C3.09001 4.37 0.750011 6.26 0.750011 9.155C0.750011 12.62 3.61501 14.345 7.80001 15.35C11.55 16.25 12.3 17.57 12.3 18.965C12.3 20 11.565 21.65 8.25001 21.65C5.16001 21.65 3.94501 20.27 3.78001 18.5H0.480011C0.660011 21.785 3.12001 23.63 6.00001 24.245V27.5H10.5V24.275C13.425 23.72 15.75 22.025 15.75 18.95C15.75 14.69 12.105 13.235 8.70001 12.35Z" fill="black"/>
</svg>
